<svg width="150" height="150" viewBox="0 0 150 150" fill="none" xmlns="http://www.w3.org/2000/svg">
  <circle cx="75" cy="75" r="75" fill="white" />
  <path
    d="M37 95.5C43.4 119.1 62 129.333 70.5 131.5C78 134.497 90 130 89.5 130C89 130 105 125 109.5 106.5C114 88 113 89.5 114.5 79C115.7 70.6 115 50.5 114.5 41.5C113.5 34.8333 110.1 21.3 104.5 20.5C98.9 19.7 93.5 35.8333 91.5 44L88.5 63C84.5 56.2 80.8333 50.1667 78 48.5L76.5 59C72.5 52.2 69.3333 46.8333 67 46.5L66 56C63.2 53.2 61.8333 50.5 61.5 50.5V61.5L48.5 33.5C44.6667 28 36.5 17.6 34.5 20C32 23 30 27.5 31 33.5C32 39.5 34.5 44 34.5 65.5C34.5 82.7 36.1667 92.6667 37 95.5Z"
    fill="#FF88CF" stroke="black" stroke-width="5" />
  <path
    d="M73 105.5C78 105 81 101.584 77 98.5843C73.5 96.5843 70.1 97.3 68.5 100.5C67.0846 103.331 69.5 105 73 105.5ZM73 105.5C73 107.833 74.7 113.4 75.5 115C76.5 117 80 120.5 84 120C88 119.5 93.5 111.5 94.5 109.5C95.3944 107.711 96 100.084 96.5 98.5843M73 105.5C73 106.5 73.2 107 72 111C70.5 116 64.8284 116.414 62 115C58 113 50.9527 103.5 50.9527 101.5M91 100.5C92 100 100 93 101.5 106M55.5 101C53.3333 100.641 48.8 100.98 48 105.211M67.5 120.5C68.3333 121.833 71.8 124.3 79 123.5"
    stroke="black" stroke-width="2" />
  <path
    d="M44.5 99C44.5471 98.2469 44.6546 97.5833 44.8115 97M19 79.5C20.6 82.3 21.5 79.5 24.5 79.5C38.6421 79.5 44.5 84 52 93.5C50.5606 92.9859 48.1951 92.7636 46.5 94.1713M46.5 94.1713C45.8333 93.6142 43.7 92.2 40.5 91C37.3 89.8 31.5 91 29 91C26.1433 91 19.7 89.2 16.5 90M46.5 94.1713C45.7707 94.7769 45.1655 95.6843 44.8115 97M44.8115 97C42.041 96.3333 35.9 95.2 33.5 96C31.1 96.8 30 97.5 28.5 98C27.2568 98.4144 27.2 98.8 26 98C24.5 97 21.5 97 19 98C17 98.8 15.8333 97.6667 15.5 97"
    stroke="black" stroke-width="2" />
  <path
    d="M95.5 89.5C96.2268 89.0375 97.3202 88.7846 98.5 89.2706M98.5 89.2706C100.296 90.0108 102.293 92.4642 103.5 98.5L106 100H109C111.5 101.833 116.9 105.6 118.5 106C120.1 106.4 121 107 123 108L131.5 112.5L133 113M98.5 89.2706C100.5 89.0138 104.6 88.4 105 88C105.5 87.5 110 86.5 112 87C114 87.5 120.5 84.5 123 85C125.5 85.5 127 88 129.5 87.5C131.5 87.1 132.333 86.6667 132.5 86.5M102 95C101.833 94.5 102.4 93.5 106 93.5C110.5 93.5 113 92.5 120 95C126 97.8 128.167 97.3333 128.5 97.5C129.833 97.3333 132.7 98.6 133.5 99"
    stroke="black" stroke-width="2" />
  <path
    d="M39 33C40.1667 36.8333 43.5 46.4 47.5 54C52.5 63.5 44 66 41.5 65.5M102.5 38C100.167 46.5 95.7 64.7 96.5 69.5C97.3 74.3 100.833 73.8333 102.5 73M55.5 73C56.5 67.5 62 65.5 64.5 73M79.5 76C80.3333 73.5 82.9 69.4 86.5 73"
    stroke="black" stroke-width="2" />
  <ellipse cx="61" cy="83.5" rx="3" ry="7.5" fill="black" />
  <ellipse cx="83.5" cy="86.5" rx="2.5" ry="6.5" fill="black" />
</svg>